<?xml version="1.0" encoding="UTF-8" standalone="no"?>
<!DOCTYPE svg PUBLIC "-//W3C//DTD SVG 1.1//EN" "http://www.w3.org/Graphics/SVG/1.1/DTD/svg11.dtd">
<svg width="100%" height="100%" viewBox="0 0 200 200" version="1.1" xmlns="http://www.w3.org/2000/svg" xmlns:xlink="http://www.w3.org/1999/xlink" xml:space="preserve" xmlns:serif="http://www.serif.com/" style="fill-rule:evenodd;clip-rule:evenodd;stroke-linecap:round;stroke-linejoin:round;stroke-miterlimit:1.5;">
    <rect x="0" y="0" width="200" height="200" style="fill:white;stroke:black;stroke-width:1.04px;"/>
    <g id="Big">
        <rect x="0" y="0" width="100" height="100" style="fill:none;stroke:black;stroke-width:2.08px;"/>
        <g transform="matrix(1,0,0,1,100,0)">
            <rect x="0" y="0" width="100" height="100" style="fill:none;stroke:black;stroke-width:2.08px;"/>
        </g>
        <g transform="matrix(1,0,0,1,100,100)">
            <rect x="0" y="0" width="100" height="100" style="fill:none;stroke:black;stroke-width:2.08px;"/>
        </g>
        <g transform="matrix(1,0,0,1,0,100)">
            <rect x="0" y="0" width="100" height="100" style="fill:none;stroke:black;stroke-width:2.08px;"/>
        </g>
    </g>
    <g transform="matrix(0.5,0,0,0.5,0,0)">
        <rect x="0" y="0" width="200" height="200" style="fill:none;stroke:black;stroke-width:0.83px;"/>
    </g>
    <g transform="matrix(0.5,0,0,0.5,0,0)">
        <rect x="0" y="0" width="100" height="100" style="fill:none;stroke:black;stroke-width:0.83px;"/>
    </g>
    <g transform="matrix(0.5,0,0,0.5,50,0)">
        <rect x="0" y="0" width="100" height="100" style="fill:none;stroke:black;stroke-width:0.83px;"/>
    </g>
    <g transform="matrix(0.5,0,0,0.5,50,50)">
        <rect x="0" y="0" width="100" height="100" style="fill:none;stroke:black;stroke-width:0.83px;"/>
    </g>
    <g transform="matrix(0.5,0,0,0.5,0,50)">
        <rect x="0" y="0" width="100" height="100" style="fill:none;stroke:black;stroke-width:0.83px;"/>
    </g>
    <g transform="matrix(0.5,0,0,0.5,100,0)">
        <rect x="0" y="0" width="100" height="100" style="fill:none;stroke:black;stroke-width:0.83px;"/>
    </g>
    <g transform="matrix(0.5,0,0,0.5,150,0)">
        <rect x="0" y="0" width="100" height="100" style="fill:none;stroke:black;stroke-width:0.83px;"/>
    </g>
    <g transform="matrix(0.5,0,0,0.5,150,50)">
        <rect x="0" y="0" width="100" height="100" style="fill:none;stroke:black;stroke-width:0.83px;"/>
    </g>
    <g transform="matrix(0.5,0,0,0.5,100,50)">
        <rect x="0" y="0" width="100" height="100" style="fill:none;stroke:black;stroke-width:0.83px;"/>
    </g>
    <g transform="matrix(0.5,0,0,0.5,100,100)">
        <rect x="0" y="0" width="100" height="100" style="fill:none;stroke:black;stroke-width:0.83px;"/>
    </g>
    <g transform="matrix(0.5,0,0,0.5,150,100)">
        <rect x="0" y="0" width="100" height="100" style="fill:none;stroke:black;stroke-width:0.83px;"/>
    </g>
    <g transform="matrix(0.5,0,0,0.5,150,150)">
        <rect x="0" y="0" width="100" height="100" style="fill:none;stroke:black;stroke-width:0.83px;"/>
    </g>
    <g transform="matrix(0.5,0,0,0.5,100,150)">
        <rect x="0" y="0" width="100" height="100" style="fill:none;stroke:black;stroke-width:0.83px;"/>
    </g>
    <g transform="matrix(0.5,0,0,0.5,0,100)">
        <rect x="0" y="0" width="100" height="100" style="fill:none;stroke:black;stroke-width:0.83px;"/>
    </g>
    <g transform="matrix(0.5,0,0,0.5,50,100)">
        <rect x="0" y="0" width="100" height="100" style="fill:none;stroke:black;stroke-width:0.83px;"/>
    </g>
    <g transform="matrix(0.5,0,0,0.5,50,150)">
        <rect x="0" y="0" width="100" height="100" style="fill:none;stroke:black;stroke-width:0.83px;"/>
    </g>
    <g transform="matrix(0.5,0,0,0.5,0,150)">
        <rect x="0" y="0" width="100" height="100" style="fill:none;stroke:black;stroke-width:0.83px;"/>
    </g>
</svg>
