<?xml version="1.0" encoding="UTF-8" standalone="no"?>
<svg
   version="1.1"
   id="svg4"
   sodipodi:docname="reimagined-vertical-light.svg"
   width="481.60001"
   height="360"
   inkscape:version="1.3 (0e150ed6c4, 2023-07-21)"
   xmlns:inkscape="http://www.inkscape.org/namespaces/inkscape"
   xmlns:sodipodi="http://sodipodi.sourceforge.net/DTD/sodipodi-0.dtd"
   xmlns="http://www.w3.org/2000/svg"
   xmlns:svg="http://www.w3.org/2000/svg">
  <sodipodi:namedview
     id="namedview4"
     pagecolor="#505050"
     bordercolor="#ffffff"
     borderopacity="1"
     inkscape:showpageshadow="0"
     inkscape:pageopacity="0"
     inkscape:pagecheckerboard="1"
     inkscape:deskcolor="#d1d1d1"
     inkscape:zoom="1.0425"
     inkscape:cx="105.03597"
     inkscape:cy="170.26379"
     inkscape:window-width="1920"
     inkscape:window-height="1009"
     inkscape:window-x="-8"
     inkscape:window-y="-8"
     inkscape:window-maximized="1"
     inkscape:current-layer="svg4" />
  <defs
     id="defs2">
    <linearGradient
       gradientUnits="userSpaceOnUse"
       x1="-819.20001"
       x2="819.20001"
       spreadMethod="pad"
       gradientTransform="matrix(0,0.09539795,-0.11701965,0,319.2,121.2)"
       id="gradient0">
      <stop
         offset="0"
         stop-color="#479DFC"
         id="stop1" />
      <stop
         offset="1"
         stop-color="#1C77DB"
         id="stop2" />
    </linearGradient>
  </defs>
  <g
     id="g4"
     transform="matrix(0.86677325,0,0,0.86677325,-36.567439,23.980815)">
    <path
       stroke="none"
       fill="url(#gradient0)"
       d="m 211.65,99.55 h -0.15 q -7.55,-9.75 -14.95,-21.75 8.4,-14 22.05,-28.85 11.15,5.65 22.1,12.75 2.2,-2.25 5.5,-4.75 l 5.75,-4.35 5.2,-3.7 q -1.95,-15.7 -2.5,-33.95 18.9,-9.45 44,-14.95 7.6,12.85 15.1,29.3 l 6.1,-0.3 h 0.4 l 5.95,0.3 q 7.65,-16.45 15.3,-29.3 25.1,5.5 43.8,14.95 -0.4,18.25 -2.35,33.95 l 5.15,3.7 5.8,4.35 q 3.2,2.5 5.35,4.75 10.95,-7.1 22.05,-12.75 13.85,14.85 22.05,28.85 -7.2,12 -14.8,21.75 h -0.2 v 23.8 q -8.5,1.4 -14.75,10.45 -6.85,9.8 -6.85,23.9 l 0.1,2.6 -19.05,4.35 h -0.15 q -2.1,0.55 -4,2.45 h -0.3 q -1.35,1.9 -1.8,4.55 l -1,15.4 -30.75,4.7 -1.9,-13.75 q -0.3,-2.4 -2.3,-3.95 h -0.15 q -1.75,-1.6 -4.3,-1.35 -10.6,0.5 -21.25,0.5 -10.5,0 -21.1,-0.5 -2.45,-0.25 -4.3,1.35 -0.2,-0.15 -0.2,0 -1.9,1.55 -2.25,3.95 l -1.95,13.75 -30.7,-4.7 q -0.35,-7.85 -1.05,-15.4 -0.35,-2.65 -1.7,-4.55 h -0.35 q -1.8,-1.9 -4,-2.45 l -19.05,-4.35 v -2.6 q 0,-14.1 -6.85,-23.9 h -0.05 q -6.2,-9.05 -14.7,-10.45 v -23.8 m 141.65,24.4 q 0,4.5 1.7,8.7 1.65,3.85 4.7,6.95 3.15,3 7.15,4.75 4.1,1.55 8.45,1.55 4.5,0 8.45,-1.55 4.1,-1.75 7.1,-4.75 3.05,-3.1 4.7,-6.95 1.9,-4.2 1.9,-8.7 0,-4.5 -1.9,-8.5 -1.2,-2.75 -2.85,-5.05 l -1.85,-1.95 -0.65,-0.85 q -2.8,-2.35 -6.45,-3.95 -3.95,-1.85 -8.45,-1.85 -4.35,0 -8.45,1.85 -3.7,1.6 -6.45,3.95 l -0.7,0.85 -1.55,1.95 q -2.1,2.3 -3.15,5.05 -1.7,4 -1.7,8.5 m -33.4,4.55 q -3.7,0 -6.3,3.05 -2.7,3 -2.7,7.25 v 12.1 q 0,4.25 2.7,7.15 2.6,3 6.3,3 3.8,0 6.45,-3 2.6,-2.9 2.6,-7.15 v -12.1 q 0,-4.25 -2.6,-7.25 -2.65,-3.05 -6.45,-3.05 m -33.15,-4.55 q 0,-4.5 -1.6,-8.5 -1.3,-2.75 -3.1,-5.05 l -1.6,-1.95 -0.85,-0.85 q -2.7,-2.35 -6.25,-3.95 -4.05,-1.85 -8.65,-1.85 -4.5,0 -8.4,1.85 -3.55,1.6 -6.5,3.95 l -0.75,0.85 -1.6,1.95 q -1.8,2.3 -2.95,5.05 -1.85,4 -1.85,8.5 0,4.5 1.85,8.7 1.55,3.85 4.55,6.95 3.05,3 7.25,4.75 3.9,1.55 8.4,1.55 4.6,0 8.65,-1.55 3.9,-1.75 7.1,-4.75 2.9,-3.1 4.7,-6.95 1.6,-4.2 1.6,-8.7"
       id="path2"
       style="fill:url(#gradient0)" />
    <path
       stroke="none"
       fill="#1c77db"
       d="m 441.55,159.5 q 0,-4.85 -1.6,-8.2 -1.5,-3.35 -3.8,-3.35 -2.3,0 -3.9,3.35 -1.6,3.35 -1.6,8.2 0,4.75 1.6,8.2 1.6,3.45 3.9,3.45 2.3,0 3.8,-3.45 1.6,-3.45 1.6,-8.2 m -221.4,46.9 q -4.7,-6.1 -6.85,-12.95 l -2.5,-8.95 -2.8,0.5 q -6.2,-0.2 -10.8,-6.85 h -0.1 q -5.2,-7.85 -5.2,-18.65 0,-10.95 5.3,-18.8 h -0.1 q 4.7,-6.6 10.9,-6.9 1.95,0.15 3.65,0.75 4.1,1.45 7.3,6.15 5.2,7.85 5.2,18.8 v 0.4 q 0,5.7 -1.45,10.6 v 0.15 l 8.8,1.8 13.7,3.15 1.25,15.65 q -0.15,2.6 1.95,4.7 1.75,1.9 4.3,2.4 21.3,3.9 42.6,6.7 2.75,0.05 4.8,-1.4 2.1,-1.65 2.45,-4.05 l 2.15,-14.2 15.2,0.05 15.45,-0.05 2.2,14.2 q 0.35,2.4 2.3,4.05 2.05,1.45 4.8,1.4 21.4,-2.8 42.75,-6.7 2.55,-0.5 4.15,-2.4 h 0.15 q 1.95,-2.1 1.85,-4.7 l 1.35,-15.65 13.7,-3.15 8.7,-2.15 q -1.35,-4.7 -1.5,-10.4 v -0.4 q 0,-10.95 5.3,-18.8 H 421 q 3.2,-4.7 7.35,-6.15 l 3.55,-0.75 q 6.4,0.3 10.95,6.9 5.2,7.85 5.2,18.8 0,10.8 -5.2,18.65 -4.55,6.65 -10.95,6.85 l -2.45,-0.35 -2.7,8.8 q -2.2,6.85 -6.9,12.95 -8.05,10.45 -23.15,17.7 -14.35,6.9 -34.35,10.45 -19.35,3.7 -42.1,3.7 h -0.4 q -22.9,0 -42.25,-3.7 -19.85,-3.55 -34.3,-10.45 -15.15,-7.25 -23.15,-17.7 m -9.7,-46.9 q 0,-4.85 -1.6,-8.2 -1.5,-3.35 -3.85,-3.35 -2.3,0 -3.8,3.35 -1.55,3.35 -1.55,8.2 0,4.75 1.55,8.2 1.5,3.45 3.8,3.45 2.35,0 3.85,-3.45 1.6,-3.45 1.6,-8.2"
       id="path3" />
    <path
       stroke="none"
       fill="#ffffff"
       d="m 320.65,337.15 q 9.9,-0.2 15.9,-6.25 5.85,-6.15 5.85,-16.3 0,-10.1 -5.85,-16.15 -6,-6.1 -15.9,-6.1 H 307.5 v 44.8 h 13.15 m 1.15,-67.55 q 13.55,0 23.7,5.55 10.3,5.75 16.1,16 5.65,10.2 5.8,23.45 -0.15,13.3 -5.95,23.4 -5.65,10.2 -16,16.1 -10.1,5.75 -23.65,5.9 h -31.65 q -7.3,-0.45 -7.05,-7.05 v -76.3 q -0.25,-7.3 7.05,-7.05 H 321.8 M 421.9,360 q -14.2,-0.05 -24.95,-5.95 -11,-5.95 -17.1,-16.2 -6.2,-10.35 -6.25,-23.75 0.05,-13.65 6.25,-24 6.1,-10.25 17.1,-16.15 10.75,-5.9 24.95,-5.9 14.3,0 25.1,5.9 10.8,5.9 16.95,16.15 5.95,10.35 6.2,24 -0.25,13.4 -6.2,23.8 -6.15,10.35 -16.95,16.15 -10.8,5.9 -25.1,5.95 m 82.85,-67.45 h -25.3 q -6.05,-0.35 -6.4,-6.35 v -9.1 q -0.25,-5.95 6.4,-6.4 h 75 q 6.15,0.45 6.35,5.6 v 0.8 9.1 q -0.35,6 -6.35,6.35 H 529.1 v 59.4 q 0.15,6.85 -7,7 h -10.4 q -7.6,0.15 -6.95,-7 v -59.4 m -82.85,45 q 6.7,0 11.9,-3 5.2,-3.05 8.15,-8.4 2.9,-5.2 3.05,-12.05 -0.15,-7.05 -3.05,-12.35 -2.95,-5.3 -8.15,-8.25 -5.2,-3 -11.9,-3 -6.8,0 -11.9,3 -5.2,2.95 -8.35,8.4 -2.9,5.15 -2.9,12.2 0,6.85 2.9,12.05 3.15,5.35 8.35,8.25 5.1,3.15 11.9,3.15 m -255,-1.05 q -5.75,10.85 -16.25,17.25 -10.5,6.2 -24.35,6.25 Q 112.7,359.95 102,354.05 91.5,348.1 85.45,337.85 79.2,327.5 79.2,314.1 q 0,-13.55 6.1,-23.85 5.95,-10.35 16.6,-16.15 10.45,-6.05 24.15,-6.05 11.65,0 21.4,4.45 5.15,2.3 9.4,5.55 3.95,3.6 0.2,7.55 l -8.6,8.55 q -3.6,3.35 -9.05,0.3 l -0.85,-0.6 q -5.45,-3.2 -12.25,-3.2 -6.7,0 -11.6,2.9 -5,2.9 -7.9,8.2 -2.65,5.3 -2.65,12.35 0,7 2.65,12.05 2.9,5.35 7.75,8.25 5,2.9 11.75,2.9 7,0 12.45,-2.95 5.35,-3 7.6,-8.2 H 129.3 q -4.85,-0.75 -5,-4.9 v -9.4 q 0.25,-5.05 5,-4.95 h 32.75 q 12.15,0.2 10.5,10.4 -1.05,10.7 -5.65,19.2 m 60.35,1.05 q 6.65,0 11.85,-3 5.2,-3.05 8.1,-8.4 2.95,-5.2 3.1,-12.05 -0.15,-7.05 -3.1,-12.35 -2.9,-5.3 -8.1,-8.25 -5.2,-3 -11.85,-3 -6.85,0 -12,3 -5.2,2.95 -8.25,8.4 -2.9,5.15 -2.9,12.2 0,6.85 2.9,12.05 3.05,5.35 8.25,8.25 5.15,3.15 12,3.15 m 0,22.45 q -14.3,-0.05 -25,-5.95 -10.95,-5.95 -17.1,-16.2 -6.2,-10.35 -6.3,-23.75 0.1,-13.65 6.3,-24 6.15,-10.25 17.1,-16.15 10.7,-5.9 25,-5.9 14.25,0 25.05,5.9 10.8,5.9 16.95,16.15 5.95,10.35 6.2,24 -0.25,13.4 -6.2,23.8 -6.15,10.35 -16.95,16.15 -10.8,5.9 -25.05,5.95"
       id="path4" />
  </g>
</svg>
